<?xml version="1.0" standalone="no"?>
<!DOCTYPE svg PUBLIC "-//W3C//DTD SVG 20010904//EN"
 "http://www.w3.org/TR/2001/REC-SVG-20010904/DTD/svg10.dtd">
<svg version="1.0" xmlns="http://www.w3.org/2000/svg"
 width="173.000000pt" height="173.000000pt" viewBox="0 0 173.000000 173.000000"
 preserveAspectRatio="xMidYMid meet">
<metadata>
Created by potrace 1.14, written by Peter Selinger 2001-2017
</metadata>
<g transform="translate(0.000000,173.000000) scale(0.100000,-0.100000)"
fill="#000000" stroke="none">
<path d="M0 865 l0 -865 865 0 865 0 0 865 0 865 -865 0 -865 0 0 -865z m850
-14 l0 -720 -72 41 c-197 111 -370 263 -424 373 -26 55 -29 71 -32 183 l-4
122 91 0 91 0 0 -95 c0 -70 5 -105 17 -128 17 -34 131 -157 145 -157 4 0 8
198 8 440 0 242 -3 440 -7 440 -5 0 -80 -14 -168 -30 -88 -16 -163 -30 -167
-30 -7 0 -12 179 -5 181 9 2 505 97 515 98 9 1 12 -149 12 -718z m325 670
l260 -47 3 -92 c1 -51 1 -92 -2 -92 -2 0 -40 7 -83 15 -43 8 -81 15 -85 15 -5
0 -8 -216 -8 -479 l0 -480 -87 -65 -88 -66 -5 562 -5 563 -82 15 -83 14 0 93
c0 51 1 93 3 93 1 0 119 -22 262 -49z"/>
</g>
</svg>
